<svg width="363" height="101" viewBox="0 0 363 101" fill="none" xmlns="http://www.w3.org/2000/svg">
<g filter="url(#filter0_d_43_61)">
<rect x="8" y="8" width="347" height="85" rx="42.5" fill="black" shape-rendering="crispEdges"/>
<rect x="9.5" y="9.5" width="344" height="82" rx="41" stroke="url(#paint0_linear_43_61)" stroke-width="3" shape-rendering="crispEdges"/>
<path d="M110.51 63.5C109.923 63.5 109.43 63.3 109.03 62.9C108.63 62.5 108.43 62.0067 108.43 61.42V34.34C108.43 33.7267 108.63 33.2333 109.03 32.86C109.43 32.46 109.923 32.26 110.51 32.26C111.123 32.26 111.616 32.46 111.99 32.86C112.39 33.2333 112.59 33.7267 112.59 34.34V61.42C112.59 62.0067 112.39 62.5 111.99 62.9C111.616 63.3 111.123 63.5 110.51 63.5ZM122.618 63.5C122.031 63.5 121.538 63.3 121.138 62.9C120.765 62.5 120.578 62.0067 120.578 61.42V34.34C120.578 33.7267 120.765 33.2333 121.138 32.86C121.538 32.46 122.031 32.26 122.618 32.26C123.258 32.26 123.791 32.5133 124.218 33.02L141.658 56.22V34.34C141.658 33.7267 141.858 33.2333 142.258 32.86C142.658 32.46 143.151 32.26 143.738 32.26C144.351 32.26 144.845 32.46 145.218 32.86C145.591 33.2333 145.778 33.7267 145.778 34.34V61.42C145.778 62.0067 145.591 62.5 145.218 62.9C144.845 63.3 144.351 63.5 143.738 63.5C143.471 63.5 143.178 63.4467 142.858 63.34C142.565 63.2067 142.325 63.02 142.138 62.78L124.698 39.58V61.42C124.698 62.0067 124.498 62.5 124.098 62.9C123.725 63.3 123.231 63.5 122.618 63.5ZM155.861 63.5C155.275 63.5 154.781 63.3 154.381 62.9C153.981 62.5 153.781 62.0067 153.781 61.42V34.34C153.781 33.7267 153.981 33.2333 154.381 32.86C154.781 32.46 155.275 32.26 155.861 32.26C156.475 32.26 156.968 32.46 157.341 32.86C157.741 33.2333 157.941 33.7267 157.941 34.34V61.42C157.941 62.0067 157.741 62.5 157.341 62.9C156.968 63.3 156.475 63.5 155.861 63.5ZM179.93 63.9C177.77 63.9 175.743 63.5 173.85 62.7C171.983 61.8733 170.343 60.74 168.93 59.3C167.543 57.8333 166.45 56.1267 165.65 54.18C164.876 52.2333 164.49 50.1267 164.49 47.86C164.49 45.62 164.876 43.54 165.65 41.62C166.45 39.6733 167.543 37.98 168.93 36.54C170.343 35.0733 171.983 33.9267 173.85 33.1C175.716 32.2733 177.743 31.86 179.93 31.86C181.983 31.86 183.743 32.1267 185.21 32.66C186.703 33.1933 188.196 34.0733 189.69 35.3C189.903 35.46 190.063 35.6333 190.17 35.82C190.303 35.98 190.383 36.1533 190.41 36.34C190.463 36.5 190.49 36.7 190.49 36.94C190.49 37.4467 190.303 37.8733 189.93 38.22C189.583 38.54 189.156 38.7267 188.65 38.78C188.143 38.8067 187.65 38.6333 187.17 38.26C186.183 37.4067 185.156 36.7533 184.09 36.3C183.05 35.8467 181.663 35.62 179.93 35.62C178.356 35.62 176.876 35.94 175.49 36.58C174.103 37.22 172.876 38.1 171.81 39.22C170.77 40.34 169.956 41.6467 169.37 43.14C168.783 44.6067 168.49 46.18 168.49 47.86C168.49 49.5667 168.783 51.1667 169.37 52.66C169.956 54.1267 170.77 55.42 171.81 56.54C172.876 57.66 174.103 58.54 175.49 59.18C176.876 59.7933 178.356 60.1 179.93 60.1C181.29 60.1 182.57 59.8733 183.77 59.42C184.996 58.94 186.17 58.2867 187.29 57.46C187.77 57.1133 188.236 56.9667 188.69 57.02C189.17 57.0467 189.57 57.2333 189.89 57.58C190.21 57.9 190.37 58.3533 190.37 58.94C190.37 59.2067 190.316 59.4733 190.21 59.74C190.103 59.98 189.943 60.2067 189.73 60.42C188.29 61.5667 186.743 62.4333 185.09 63.02C183.463 63.6067 181.743 63.9 179.93 63.9ZM199.103 63.5C198.517 63.5 198.023 63.3 197.623 62.9C197.223 62.5 197.023 62.0067 197.023 61.42V34.34C197.023 33.7267 197.223 33.2333 197.623 32.86C198.023 32.46 198.517 32.26 199.103 32.26C199.717 32.26 200.21 32.46 200.583 32.86C200.983 33.2333 201.183 33.7267 201.183 34.34V61.42C201.183 62.0067 200.983 62.5 200.583 62.9C200.21 63.3 199.717 63.5 199.103 63.5ZM207.932 63.5C207.185 63.5 206.612 63.18 206.212 62.54C205.812 61.9 205.772 61.22 206.092 60.5L217.332 33.66C217.732 32.7267 218.385 32.26 219.292 32.26C220.252 32.26 220.905 32.7267 221.252 33.66L232.532 60.58C232.825 61.3267 232.772 62.0067 232.372 62.62C231.999 63.2067 231.425 63.5 230.652 63.5C230.252 63.5 229.865 63.3933 229.492 63.18C229.145 62.94 228.892 62.62 228.732 62.22L218.812 37.58H219.932L209.852 62.22C209.665 62.6467 209.385 62.9667 209.012 63.18C208.665 63.3933 208.305 63.5 207.932 63.5ZM210.052 56.62L211.652 53.18H227.332L228.932 56.62H210.052ZM239.377 63.5C238.79 63.5 238.297 63.3 237.897 62.9C237.497 62.5 237.297 62.0067 237.297 61.42V34.34C237.297 33.7267 237.497 33.2333 237.897 32.86C238.297 32.46 238.79 32.26 239.377 32.26H246.577C248.577 32.26 250.35 32.6867 251.897 33.54C253.444 34.3667 254.644 35.5133 255.497 36.98C256.377 38.4467 256.817 40.1533 256.817 42.1C256.817 43.9133 256.377 45.5267 255.497 46.94C254.644 48.3533 253.444 49.46 251.897 50.26C250.35 51.06 248.577 51.46 246.577 51.46H241.457V61.42C241.457 62.0067 241.257 62.5 240.857 62.9C240.484 63.3 239.99 63.5 239.377 63.5ZM255.977 63.5C255.604 63.5 255.257 63.42 254.937 63.26C254.644 63.1 254.39 62.8467 254.177 62.5L246.977 50.9L251.017 49.74L257.577 60.3C258.057 61.0733 258.124 61.8067 257.777 62.5C257.43 63.1667 256.83 63.5 255.977 63.5ZM241.457 47.62H246.577C247.804 47.62 248.884 47.3933 249.817 46.94C250.75 46.46 251.484 45.8067 252.017 44.98C252.55 44.1267 252.817 43.1667 252.817 42.1C252.817 40.9267 252.55 39.8867 252.017 38.98C251.484 38.0733 250.75 37.3667 249.817 36.86C248.884 36.3533 247.804 36.1 246.577 36.1H241.457V47.62Z" fill="white"/>
</g>
<defs>
<filter id="filter0_d_43_61" x="0.4" y="0.4" width="362.2" height="100.2" filterUnits="userSpaceOnUse" color-interpolation-filters="sRGB">
<feFlood flood-opacity="0" result="BackgroundImageFix"/>
<feColorMatrix in="SourceAlpha" type="matrix" values="0 0 0 0 0 0 0 0 0 0 0 0 0 0 0 0 0 0 127 0" result="hardAlpha"/>
<feOffset/>
<feGaussianBlur stdDeviation="3.8"/>
<feComposite in2="hardAlpha" operator="out"/>
<feColorMatrix type="matrix" values="0 0 0 0 0.445652 0 0 0 0 0.0192308 0 0 0 0 1 0 0 0 1 0"/>
<feBlend mode="normal" in2="BackgroundImageFix" result="effect1_dropShadow_43_61"/>
<feBlend mode="normal" in="SourceGraphic" in2="effect1_dropShadow_43_61" result="shape"/>
</filter>
<linearGradient id="paint0_linear_43_61" x1="8" y1="50.5" x2="181" y2="50.5" gradientUnits="userSpaceOnUse">
<stop stop-color="#4F00B5"/>
<stop offset="1" stop-color="white" stop-opacity="0"/>
</linearGradient>
</defs>
</svg>
