<svg width="388" height="69" viewBox="0 0 388 69" fill="none" xmlns="http://www.w3.org/2000/svg">
<path d="M387.907 67H372.355V1.62399H387.907V67Z" fill="white"/>
<path d="M346.925 67V1.62399H362.573V67H346.925ZM307.949 67V1.62399H323.501V67H307.949ZM318.029 42.52V27.448H352.301V42.52H318.029Z" fill="white"/>
<path d="M276.248 68.632C272.344 68.632 268.728 68.056 265.4 66.904C262.072 65.752 257.464 63.74 254.84 61.5C247.937 57.184 243.597 56.132 243.569 55.5C243.54 54.868 252.069 51.5 252.069 51.5C256.069 50 259.069 49.5 259.569 48.5C260.069 47.5 259.569 46 259.569 46C262.569 48.5 265.848 50.68 268.472 52.216C271.16 53.688 274.04 54.424 277.112 54.424C279.672 54.424 281.592 53.912 282.872 52.888C284.152 51.864 284.792 50.52 284.792 48.856C284.792 47.832 284.504 46.904 283.928 46.072C283.352 45.24 282.264 44.472 280.664 43.768C279.064 43 276.792 42.296 273.848 41.656C268.344 40.376 263.992 38.776 260.792 36.856C257.592 34.936 255.32 32.632 253.976 29.944C252.632 27.192 251.96 24.088 251.96 20.632C251.96 16.792 252.92 13.336 254.84 10.264C256.824 7.12801 259.64 4.66401 263.288 2.87201C267 1.01601 271.352 0.0880127 276.344 0.0880127C282.04 0.0880127 286.872 1.20801 290.84 3.44801C294.808 5.68801 297.912 8.60001 300.152 12.184L288.344 20.632C286.744 18.52 284.728 17.016 282.296 16.12C279.928 15.224 277.592 14.776 275.288 14.776C272.92 14.776 271.032 15.224 269.624 16.12C268.28 17.016 267.608 18.296 267.608 19.96C267.608 21.496 268.312 22.776 269.72 23.8C271.192 24.76 274.04 25.72 278.264 26.68C283.64 27.96 287.992 29.528 291.32 31.384C294.648 33.24 297.08 35.544 298.616 38.296C300.216 40.984 301.016 44.28 301.016 48.184C301.016 52.152 299.992 55.672 297.944 58.744C295.96 61.816 293.112 64.248 289.4 66.04C285.752 67.768 281.368 68.632 276.248 68.632Z" fill="white"/>
<path d="M140.043 67V1.62399H171.819C178.731 1.62399 185.069 5 191.069 11C182.069 11.5 186.069 17.5 188.569 21.5C190.801 25.0721 196.395 27 196.395 34.264C196.395 41.176 195.051 47.064 192.363 51.928C189.739 56.792 185.963 60.536 181.035 63.16C176.107 65.72 170.187 67 163.275 67H140.043ZM155.595 58.36L149.163 51.928H162.219C165.931 51.928 169.131 51.352 171.819 50.2C174.571 48.984 176.683 47.064 178.155 44.44C179.691 41.816 180.459 38.424 180.459 34.264C180.459 30.168 179.723 26.84 178.251 24.28C176.779 21.656 174.667 19.736 171.915 18.52C169.227 17.304 166.027 16.696 162.315 16.696H148.491L155.595 12.376V58.36Z" fill="white"/>
<path d="M66.375 34.36C66.375 29.368 67.175 24.824 68.775 20.728C70.375 16.568 72.647 12.984 75.591 9.976C78.599 6.90401 82.151 4.53601 86.247 2.872C90.407 1.20801 94.951 0.376007 99.879 0.376007C104.807 0.376007 109.319 1.20801 113.415 2.872C117.575 4.53601 121.159 6.90401 124.167 9.976C127.175 12.984 129.479 16.568 131.079 20.728C132.679 24.824 133.479 29.368 133.479 34.36C133.479 39.288 132.679 43.832 131.079 47.992C129.479 52.152 127.175 55.768 124.167 58.84C121.159 61.848 117.575 64.184 113.415 65.848C109.319 67.448 104.807 68.248 99.879 68.248C94.951 68.248 90.407 67.448 86.247 65.848C82.151 64.184 78.599 61.848 75.591 58.84C72.647 55.768 70.375 52.152 68.775 47.992C67.175 43.832 66.375 39.288 66.375 34.36ZM82.215 34.36C82.215 38.2 82.951 41.528 84.423 44.344C85.959 47.096 88.071 49.208 90.759 50.68C93.447 52.152 96.487 52.888 99.879 52.888C103.399 52.888 106.471 52.152 109.095 50.68C111.719 49.208 113.799 47.064 115.335 44.248C116.871 41.432 117.639 38.104 117.639 34.264C117.639 30.424 116.871 27.128 115.335 24.376C113.799 21.624 111.719 19.512 109.095 18.04C106.471 16.504 103.399 15.736 99.879 15.736C96.487 15.736 93.447 16.504 90.759 18.04C88.071 19.512 85.959 21.656 84.423 24.472C82.951 27.224 82.215 30.52 82.215 34.36Z" fill="white"/>
<path d="M33.312 68.248C26.464 68.248 20.544 66.808 15.552 63.928C10.56 61.048 6.72 57.08 4.032 52.024C1.344 46.904 0 41.016 0 34.36C0 29.368 0.800001 24.824 2.4 20.728C4 16.568 6.272 12.984 9.216 9.97598C12.16 6.90398 15.68 4.56798 19.776 2.96798C23.872 1.30398 28.384 0.471985 33.312 0.471985C40.992 0.471985 47.36 2.19998 52.416 5.65598C57.472 9.04798 61.216 14.008 63.648 20.536L49.728 26.2C47.872 22.616 45.632 19.96 43.008 18.232C40.384 16.44 37.152 15.544 33.312 15.544C29.92 15.544 26.912 16.312 24.288 17.848C21.664 19.384 19.584 21.56 18.048 24.376C16.576 27.192 15.84 30.52 15.84 34.36C15.84 38.2 16.576 41.528 18.048 44.344C19.584 47.16 21.664 49.336 24.288 50.872C26.912 52.344 29.92 53.08 33.312 53.08C37.152 53.08 40.384 52.216 43.008 50.488C45.632 48.76 47.872 46.104 49.728 42.52L63.648 48.184C61.216 54.712 57.472 59.704 52.416 63.16C47.36 66.552 40.992 68.248 33.312 68.248Z" fill="white"/>
</svg>
