<svg width="158" height="28" viewBox="0 0 158 28" fill="none" xmlns="http://www.w3.org/2000/svg">
<rect x="0.5" y="0.5" width="157" height="27" rx="13.5" stroke="white"/>
<g filter="url(#filter0_d_75_54)">
<path d="M26.8501 18.65C26.0401 18.65 25.2801 18.5 24.5701 18.2C23.8701 17.89 23.2551 17.465 22.7251 16.925C22.2051 16.375 21.7951 15.735 21.4951 15.005C21.2051 14.275 21.0601 13.485 21.0601 12.635C21.0601 11.795 21.2051 11.015 21.4951 10.295C21.7951 9.565 22.2051 8.93 22.7251 8.39C23.2551 7.84 23.8701 7.41 24.5701 7.1C25.2701 6.79 26.0301 6.635 26.8501 6.635C27.6201 6.635 28.2801 6.735 28.8301 6.935C29.3901 7.135 29.9501 7.465 30.5101 7.925C30.5901 7.985 30.6501 8.05 30.6901 8.12C30.7401 8.18 30.7701 8.245 30.7801 8.315C30.8001 8.375 30.8101 8.45 30.8101 8.54C30.8101 8.73 30.7401 8.89 30.6001 9.02C30.4701 9.14 30.3101 9.21 30.1201 9.23C29.9301 9.24 29.7451 9.175 29.5651 9.035C29.1951 8.715 28.8101 8.47 28.4101 8.3C28.0201 8.13 27.5001 8.045 26.8501 8.045C26.2601 8.045 25.7051 8.165 25.1851 8.405C24.6651 8.645 24.2051 8.975 23.8051 9.395C23.4151 9.815 23.1101 10.305 22.8901 10.865C22.6701 11.415 22.5601 12.005 22.5601 12.635C22.5601 13.275 22.6701 13.875 22.8901 14.435C23.1101 14.985 23.4151 15.47 23.8051 15.89C24.2051 16.31 24.6651 16.64 25.1851 16.88C25.7051 17.11 26.2601 17.225 26.8501 17.225C27.3601 17.225 27.8401 17.14 28.2901 16.97C28.7501 16.79 29.1901 16.545 29.6101 16.235C29.7901 16.105 29.9651 16.05 30.1351 16.07C30.3151 16.08 30.4651 16.15 30.5851 16.28C30.7051 16.4 30.7651 16.57 30.7651 16.79C30.7651 16.89 30.7451 16.99 30.7051 17.09C30.6651 17.18 30.6051 17.265 30.5251 17.345C29.9851 17.775 29.4051 18.1 28.7851 18.32C28.1751 18.54 27.5301 18.65 26.8501 18.65ZM35.0903 18.5C34.8703 18.5 34.6853 18.425 34.5353 18.275C34.3853 18.125 34.3103 17.94 34.3103 17.72V7.565C34.3103 7.335 34.3853 7.15 34.5353 7.01C34.6853 6.86 34.8703 6.785 35.0903 6.785H37.7903C38.5403 6.785 39.2053 6.945 39.7853 7.265C40.3653 7.575 40.8153 8.005 41.1353 8.555C41.4653 9.105 41.6303 9.745 41.6303 10.475C41.6303 11.155 41.4653 11.76 41.1353 12.29C40.8153 12.82 40.3653 13.235 39.7853 13.535C39.2053 13.835 38.5403 13.985 37.7903 13.985H35.8703V17.72C35.8703 17.94 35.7953 18.125 35.6453 18.275C35.5053 18.425 35.3203 18.5 35.0903 18.5ZM41.3153 18.5C41.1753 18.5 41.0453 18.47 40.9253 18.41C40.8153 18.35 40.7203 18.255 40.6403 18.125L37.9403 13.775L39.4553 13.34L41.9153 17.3C42.0953 17.59 42.1203 17.865 41.9903 18.125C41.8603 18.375 41.6353 18.5 41.3153 18.5ZM35.8703 12.545H37.7903C38.2503 12.545 38.6553 12.46 39.0053 12.29C39.3553 12.11 39.6303 11.865 39.8303 11.555C40.0303 11.235 40.1303 10.875 40.1303 10.475C40.1303 10.035 40.0303 9.645 39.8303 9.305C39.6303 8.965 39.3553 8.7 39.0053 8.51C38.6553 8.32 38.2503 8.225 37.7903 8.225H35.8703V12.545ZM45.6178 18.5C45.3978 18.5 45.2128 18.425 45.0628 18.275C44.9128 18.125 44.8378 17.94 44.8378 17.72V7.565C44.8378 7.335 44.9128 7.15 45.0628 7.01C45.2128 6.86 45.3978 6.785 45.6178 6.785C45.8478 6.785 46.0328 6.86 46.1728 7.01C46.3228 7.15 46.3978 7.335 46.3978 7.565V17.72C46.3978 17.94 46.3228 18.125 46.1728 18.275C46.0328 18.425 45.8478 18.5 45.6178 18.5ZM49.9785 18.5C49.6985 18.5 49.4835 18.38 49.3335 18.14C49.1835 17.9 49.1685 17.645 49.2885 17.375L53.5035 7.31C53.6535 6.96 53.8985 6.785 54.2385 6.785C54.5985 6.785 54.8435 6.96 54.9735 7.31L59.2035 17.405C59.3135 17.685 59.2935 17.94 59.1435 18.17C59.0035 18.39 58.7885 18.5 58.4985 18.5C58.3485 18.5 58.2035 18.46 58.0635 18.38C57.9335 18.29 57.8385 18.17 57.7785 18.02L54.0585 8.78H54.4785L50.6985 18.02C50.6285 18.18 50.5235 18.3 50.3835 18.38C50.2535 18.46 50.1185 18.5 49.9785 18.5ZM50.7735 15.92L51.3735 14.63H57.2535L57.8535 15.92H50.7735ZM62.8203 18.5C62.6003 18.5 62.4153 18.425 62.2653 18.275C62.1153 18.125 62.0403 17.94 62.0403 17.72V7.565C62.0403 7.335 62.1153 7.15 62.2653 7.01C62.4153 6.86 62.6003 6.785 62.8203 6.785H65.5203C66.2703 6.785 66.9353 6.945 67.5153 7.265C68.0953 7.575 68.5453 8.005 68.8653 8.555C69.1953 9.105 69.3603 9.745 69.3603 10.475C69.3603 11.155 69.1953 11.76 68.8653 12.29C68.5453 12.82 68.0953 13.235 67.5153 13.535C66.9353 13.835 66.2703 13.985 65.5203 13.985H63.6003V17.72C63.6003 17.94 63.5253 18.125 63.3753 18.275C63.2353 18.425 63.0503 18.5 62.8203 18.5ZM69.0453 18.5C68.9053 18.5 68.7753 18.47 68.6553 18.41C68.5453 18.35 68.4503 18.255 68.3703 18.125L65.6703 13.775L67.1853 13.34L69.6453 17.3C69.8253 17.59 69.8503 17.865 69.7203 18.125C69.5903 18.375 69.3653 18.5 69.0453 18.5ZM63.6003 12.545H65.5203C65.9803 12.545 66.3853 12.46 66.7353 12.29C67.0853 12.11 67.3603 11.865 67.5603 11.555C67.7603 11.235 67.8603 10.875 67.8603 10.475C67.8603 10.035 67.7603 9.645 67.5603 9.305C67.3603 8.965 67.0853 8.7 66.7353 8.51C66.3853 8.32 65.9803 8.225 65.5203 8.225H63.6003V12.545ZM83.2624 18.65C82.4524 18.65 81.6924 18.5 80.9824 18.2C80.2824 17.89 79.6674 17.465 79.1374 16.925C78.6174 16.375 78.2074 15.735 77.9074 15.005C77.6174 14.275 77.4724 13.485 77.4724 12.635C77.4724 11.795 77.6174 11.015 77.9074 10.295C78.2074 9.565 78.6174 8.93 79.1374 8.39C79.6674 7.84 80.2824 7.41 80.9824 7.1C81.6824 6.79 82.4424 6.635 83.2624 6.635C84.0324 6.635 84.6924 6.735 85.2424 6.935C85.8024 7.135 86.3624 7.465 86.9224 7.925C87.0024 7.985 87.0624 8.05 87.1024 8.12C87.1524 8.18 87.1824 8.245 87.1924 8.315C87.2124 8.375 87.2224 8.45 87.2224 8.54C87.2224 8.73 87.1524 8.89 87.0124 9.02C86.8824 9.14 86.7224 9.21 86.5324 9.23C86.3424 9.24 86.1574 9.175 85.9774 9.035C85.6074 8.715 85.2224 8.47 84.8224 8.3C84.4324 8.13 83.9124 8.045 83.2624 8.045C82.6724 8.045 82.1174 8.165 81.5974 8.405C81.0774 8.645 80.6174 8.975 80.2174 9.395C79.8274 9.815 79.5224 10.305 79.3024 10.865C79.0824 11.415 78.9724 12.005 78.9724 12.635C78.9724 13.275 79.0824 13.875 79.3024 14.435C79.5224 14.985 79.8274 15.47 80.2174 15.89C80.6174 16.31 81.0774 16.64 81.5974 16.88C82.1174 17.11 82.6724 17.225 83.2624 17.225C83.7724 17.225 84.2524 17.14 84.7024 16.97C85.1624 16.79 85.6024 16.545 86.0224 16.235C86.2024 16.105 86.3774 16.05 86.5474 16.07C86.7274 16.08 86.8774 16.15 86.9974 16.28C87.1174 16.4 87.1774 16.57 87.1774 16.79C87.1774 16.89 87.1574 16.99 87.1174 17.09C87.0774 17.18 87.0174 17.265 86.9374 17.345C86.3974 17.775 85.8174 18.1 85.1974 18.32C84.5874 18.54 83.9424 18.65 83.2624 18.65ZM96.1376 18.65C95.2576 18.65 94.4526 18.505 93.7226 18.215C92.9926 17.915 92.3626 17.5 91.8326 16.97C91.3126 16.43 90.9076 15.795 90.6176 15.065C90.3276 14.325 90.1826 13.515 90.1826 12.635C90.1826 11.755 90.3276 10.95 90.6176 10.22C90.9076 9.49 91.3126 8.86 91.8326 8.33C92.3626 7.79 92.9926 7.375 93.7226 7.085C94.4526 6.785 95.2576 6.635 96.1376 6.635C97.0176 6.635 97.8176 6.785 98.5376 7.085C99.2676 7.375 99.8976 7.79 100.428 8.33C100.958 8.86 101.368 9.49 101.658 10.22C101.948 10.95 102.093 11.755 102.093 12.635C102.093 13.515 101.948 14.325 101.658 15.065C101.368 15.795 100.958 16.43 100.428 16.97C99.8976 17.5 99.2676 17.915 98.5376 18.215C97.8176 18.505 97.0176 18.65 96.1376 18.65ZM96.1376 17.24C96.7876 17.24 97.3826 17.125 97.9226 16.895C98.4726 16.655 98.9476 16.33 99.3476 15.92C99.7476 15.5 100.053 15.01 100.263 14.45C100.483 13.89 100.593 13.285 100.593 12.635C100.593 11.985 100.483 11.38 100.263 10.82C100.053 10.26 99.7476 9.775 99.3476 9.365C98.9476 8.945 98.4726 8.62 97.9226 8.39C97.3826 8.16 96.7876 8.045 96.1376 8.045C95.4876 8.045 94.8876 8.16 94.3376 8.39C93.7976 8.62 93.3276 8.945 92.9276 9.365C92.5376 9.775 92.2326 10.26 92.0126 10.82C91.7926 11.38 91.6826 11.985 91.6826 12.635C91.6826 13.285 91.7926 13.89 92.0126 14.45C92.2326 15.01 92.5376 15.5 92.9276 15.92C93.3276 16.33 93.7976 16.655 94.3376 16.895C94.8876 17.125 95.4876 17.24 96.1376 17.24ZM106.351 18.5C106.131 18.5 105.946 18.425 105.796 18.275C105.656 18.125 105.586 17.94 105.586 17.72V7.565C105.586 7.335 105.656 7.15 105.796 7.01C105.946 6.86 106.131 6.785 106.351 6.785C106.591 6.785 106.791 6.88 106.951 7.07L113.491 15.77V7.565C113.491 7.335 113.566 7.15 113.716 7.01C113.866 6.86 114.051 6.785 114.271 6.785C114.501 6.785 114.686 6.86 114.826 7.01C114.966 7.15 115.036 7.335 115.036 7.565V17.72C115.036 17.94 114.966 18.125 114.826 18.275C114.686 18.425 114.501 18.5 114.271 18.5C114.171 18.5 114.061 18.48 113.941 18.44C113.831 18.39 113.741 18.32 113.671 18.23L107.131 9.53V17.72C107.131 17.94 107.056 18.125 106.906 18.275C106.766 18.425 106.581 18.5 106.351 18.5ZM122.552 18.5C122.332 18.5 122.147 18.425 121.997 18.275C121.847 18.125 121.772 17.94 121.772 17.72V6.785H123.332V17.72C123.332 17.94 123.257 18.125 123.107 18.275C122.957 18.425 122.772 18.5 122.552 18.5ZM118.532 8.225C118.322 8.225 118.147 8.16 118.007 8.03C117.877 7.89 117.812 7.715 117.812 7.505C117.812 7.295 117.877 7.125 118.007 6.995C118.147 6.855 118.322 6.785 118.532 6.785H126.557C126.767 6.785 126.937 6.855 127.067 6.995C127.207 7.125 127.277 7.295 127.277 7.505C127.277 7.715 127.207 7.89 127.067 8.03C126.937 8.16 126.767 8.225 126.557 8.225H118.532ZM128.388 18.5C128.108 18.5 127.893 18.38 127.743 18.14C127.593 17.9 127.578 17.645 127.698 17.375L131.913 7.31C132.063 6.96 132.308 6.785 132.648 6.785C133.008 6.785 133.253 6.96 133.383 7.31L137.613 17.405C137.723 17.685 137.703 17.94 137.553 18.17C137.413 18.39 137.198 18.5 136.908 18.5C136.758 18.5 136.613 18.46 136.473 18.38C136.343 18.29 136.248 18.17 136.188 18.02L132.468 8.78H132.888L129.108 18.02C129.038 18.18 128.933 18.3 128.793 18.38C128.663 18.46 128.528 18.5 128.388 18.5ZM129.183 15.92L129.783 14.63H135.663L136.263 15.92H129.183Z" fill="white"/>
</g>
<defs>
<filter id="filter0_d_75_54" x="17.0601" y="2.63501" width="124.718" height="20.015" filterUnits="userSpaceOnUse" color-interpolation-filters="sRGB">
<feFlood flood-opacity="0" result="BackgroundImageFix"/>
<feColorMatrix in="SourceAlpha" type="matrix" values="0 0 0 0 0 0 0 0 0 0 0 0 0 0 0 0 0 0 127 0" result="hardAlpha"/>
<feOffset/>
<feGaussianBlur stdDeviation="2"/>
<feComposite in2="hardAlpha" operator="out"/>
<feColorMatrix type="matrix" values="0 0 0 0 1 0 0 0 0 1 0 0 0 0 1 0 0 0 0.25 0"/>
<feBlend mode="normal" in2="BackgroundImageFix" result="effect1_dropShadow_75_54"/>
<feBlend mode="normal" in="SourceGraphic" in2="effect1_dropShadow_75_54" result="shape"/>
</filter>
</defs>
</svg>
